<?xml version="1.0" encoding="UTF-8" standalone="no"?>
<!DOCTYPE svg PUBLIC "-//W3C//DTD SVG 1.1//EN" "http://www.w3.org/Graphics/SVG/1.1/DTD/svg11.dtd">
<svg width="100%" height="100%" viewBox="0 0 1000 1500" version="1.1" xmlns="http://www.w3.org/2000/svg" xmlns:xlink="http://www.w3.org/1999/xlink" xml:space="preserve" xmlns:serif="http://www.serif.com/" style="fill-rule:evenodd;clip-rule:evenodd;stroke-linecap:round;stroke-linejoin:round;stroke-miterlimit:1.5;">
    <g transform="matrix(1,0,0,1,222.133,77.866)">
        <path d="M142.778,571.221C142.213,568.578 140.673,565.791 139.139,562.963C136.92,558.875 134.583,554.777 133.223,551.022C128.891,539.059 127.405,524.082 126.688,511.481C126.511,508.358 124.26,502.28 124.286,497.516C124.309,493.226 125.67,489.59 128.253,487.008C129.625,485.636 131.715,484.469 134.573,484.443C136.35,484.427 140.576,485.736 141.123,485.908C147.019,487.541 151.054,490.163 156.311,493.24C166.914,499.447 179.848,504.346 189.458,512.048C192.304,514.329 194.157,517.328 195.694,520.544C196.232,521.671 196.728,522.824 197.328,523.901C197.642,524.465 197.912,525.074 198.523,525.417C202.371,527.582 203.738,532.464 201.574,536.312C199.409,540.16 194.527,541.527 190.679,539.363C187.031,537.311 184.701,534.308 182.912,530.872C182.238,529.577 181.646,528.219 180.995,526.903C180.572,526.047 180.215,525.145 179.452,524.533C170.428,517.301 158.184,512.876 148.228,507.048C145.67,505.551 143.534,504.119 141.145,502.962C141.811,505.946 142.558,508.739 142.662,510.572C143.297,521.718 144.435,534.993 148.267,545.575C149.648,549.387 152.325,553.565 154.464,557.709C156.381,561.423 157.925,565.132 158.571,568.593C159.156,571.726 158.642,574.866 157.382,577.892C156.363,580.337 154.703,582.689 153.708,584.794C150.86,590.812 148.315,596.986 146.523,603.438C139.93,627.172 136.18,652.304 135.437,676.941C134.855,696.224 131.602,715.327 130.337,734.545C130.121,737.818 129.542,746.136 127.828,751.465C126.29,756.244 123.418,759.25 120.781,760.395C116.731,762.154 112.016,760.294 110.257,756.244C108.832,752.962 109.783,749.243 112.351,747.015C112.676,745.092 114.211,735.926 114.371,733.494C115.624,714.464 118.868,695.551 119.444,676.459C120.226,650.548 124.173,624.117 131.106,599.156C133.144,591.822 136.008,584.793 139.244,577.951C139.944,576.473 140.95,574.875 141.872,573.218C142.195,572.637 142.644,571.552 142.778,571.221Z" style="fill:white;"/>
    </g>
    <g transform="matrix(1,0,0,1,222.133,77.866)">
        <path d="M223.506,530.766C234.397,522.672 248.898,522.144 261.85,524.502C269.166,525.835 276.175,528.767 283.679,528.859C299.342,529.05 313.581,520.819 327.852,515.559C331.188,514.329 335.451,512.978 339.425,513.017C341.443,513.037 343.476,513.368 344.537,515.364C349.236,524.202 354.344,533.825 356.235,543.456C357.805,551.454 356.923,559.455 350.497,566.676C347.531,570.009 343.448,572.612 339.64,575.462C334.405,579.381 329.627,583.692 326.749,589.251C320.974,600.409 313.206,611.741 309.374,623.717C302.591,644.913 300.228,667.117 300.228,689.39C300.228,694.166 299.975,699.072 300.643,703.811C301.695,711.272 302.822,719.322 301.994,726.86C301.315,733.031 299.25,738.853 293.965,743.268C292.77,744.266 291.483,745.39 290.087,746.367C289.052,747.092 288.005,747.906 286.741,747.906C282.326,747.906 278.741,751.491 278.741,755.906C278.741,760.321 282.326,763.906 286.741,763.906C293.475,763.906 299.505,759.488 304.223,755.547C320.509,741.942 319.139,720.396 316.486,701.577C315.922,697.573 316.228,693.425 316.228,689.39C316.228,668.774 318.335,648.212 324.613,628.593C328.179,617.448 335.583,606.99 340.958,596.606C342.748,593.148 345.972,590.709 349.228,588.271C353.91,584.767 358.804,581.411 362.451,577.312C372.696,565.798 374.439,553.126 371.935,540.374C369.753,529.257 364.089,518.054 358.664,507.852C355.258,501.447 349.865,498.343 343.675,497.353C336.7,496.237 328.443,498.289 322.319,500.546C309.831,505.149 297.58,513.027 283.874,512.86C277.27,512.78 271.155,509.934 264.716,508.761C247.522,505.631 228.42,507.18 213.962,517.924C210.418,520.558 209.68,525.573 212.313,529.117C214.947,532.661 219.962,533.399 223.506,530.766Z" style="fill:white;"/>
    </g>
    <g transform="matrix(1,0,0,1,223.363,92.2205)">
        <path d="M312.135,755.292C313.008,756.561 313.264,758.155 313.739,759.62C314.445,761.795 315.293,763.868 316.499,765.677C322.491,774.665 333.472,799.334 334.305,810.035C334.647,814.437 338.499,817.733 342.901,817.391C347.303,817.048 350.599,813.196 350.256,808.794C349.283,796.286 336.815,767.307 329.812,756.802C328.979,755.552 328.738,753.941 328.238,752.429C327.513,750.236 326.616,748.113 325.318,746.225C322.816,742.587 317.831,741.665 314.193,744.167C310.555,746.669 309.633,751.654 312.135,755.292Z" style="fill:white;"/>
    </g>
    <g transform="matrix(1,0,0,1,216.781,88.6694)">
        <path d="M71.59,804.494C71.78,804.235 73.083,802.441 73.882,801.036C76.35,796.696 79.189,790.576 82.672,784.007C87.106,775.644 93.61,770.832 99.425,763.974C102.281,760.606 107.333,760.19 110.701,763.046C114.069,765.901 114.485,770.954 111.629,774.321C106.577,780.28 100.661,784.235 96.808,791.502C92.579,799.479 89.23,806.804 86.377,811.31C84.422,814.398 82.425,816.497 80.693,817.647C77.014,820.088 72.045,819.082 69.604,815.403C67.221,811.811 68.122,806.991 71.59,804.494Z" style="fill:white;"/>
    </g>
    <g transform="matrix(1,0,0,1,222.133,77.866)">
        <path d="M150.153,776.101L150.084,776.158C142.574,782.787 137.332,780.029 134.876,777.805C133.477,776.538 132.224,774.594 131.67,771.913C131.068,768.995 131.883,763.651 131.515,761.09C130.888,756.719 133.927,752.662 138.298,752.034C142.516,751.429 146.443,754.239 147.274,758.365C148.462,757.784 149.627,757.378 150.676,757.172C154.017,756.513 156.876,757.347 159.12,759.264C161.55,761.34 163.556,765.024 164.861,769.321C165.069,770.006 165.3,770.795 165.533,771.61C167.516,770.375 169.524,769.229 170.764,768.795C173.931,767.687 176.617,768.083 178.529,768.969C182.385,770.755 185.419,774.533 187.803,779.079C188.47,780.35 189.103,781.675 189.77,782.931L190.554,782.146C191.902,780.809 193.215,779.876 194.232,779.376C196.806,778.113 198.659,777.687 200.129,777.57C202.379,777.392 204.173,777.806 206.066,778.711C206.881,779.1 207.762,779.77 209.299,780.426C213.36,782.16 215.248,786.865 213.514,790.926C211.78,794.986 207.075,796.875 203.015,795.141C202.389,794.873 201.733,794.551 201.143,794.242C199.855,795.576 197.542,797.896 196.081,798.927C192.627,801.363 189.038,801.786 186.007,800.751C181.794,799.312 178.451,795.654 175.889,790.902C174.994,789.242 174.161,787.454 173.253,785.799L173.246,785.788C171.116,787.216 168.319,789.045 166.943,789.776C162.39,792.192 158.653,790.935 156.892,789.732C154.94,788.399 152.853,785.519 151.581,781.394C151.091,779.807 150.649,777.949 150.153,776.101Z" style="fill:white;"/>
    </g>
    <g transform="matrix(1,0,0,1,222.133,77.866)">
        <path d="M218.796,785.506C216.224,783.733 214.824,780.529 215.503,777.281C216.405,772.959 220.647,770.183 224.969,771.086C229.464,772.025 232.142,776.72 233.065,778.645C235.567,781.547 235.684,785.919 233.157,788.966C230.339,792.365 225.291,792.836 221.893,790.018C220.616,788.959 219.506,786.992 218.796,785.506Z" style="fill:white;"/>
    </g>
    <g transform="matrix(1,0,0,1,222.133,77.866)">
        <path d="M236.115,779.752C233.814,776.13 234.787,771.302 238.357,768.863C242.002,766.372 246.984,767.31 249.475,770.956C249.603,771.143 249.936,771.795 250.216,772.359C251.504,773.779 252.288,775.663 252.288,777.729C252.288,782.145 248.704,785.729 244.288,785.729C242.455,785.729 240.462,785.166 238.662,783.549C237.945,782.904 236.727,780.835 236.115,779.752Z" style="fill:white;"/>
    </g>
    <g transform="matrix(1,0,0,1,222.133,77.866)">
        <path d="M257.039,765.745C257.079,765.596 257.117,765.466 257.151,765.369C258.602,761.199 263.166,758.991 267.336,760.443C271.404,761.858 273.604,766.235 272.361,770.318C272.191,770.987 271.673,772.946 271.308,773.65C270.65,774.917 269.795,775.843 268.935,776.507C266.528,778.365 263.651,779.146 260.06,777.318C256.125,775.315 254.557,770.494 256.56,766.56C256.705,766.275 256.865,766.003 257.039,765.745ZM266.721,762.788L266.847,762.84L266.791,762.815L266.721,762.788ZM266.27,762.617L266.286,762.623L266.274,762.619L266.27,762.617Z" style="fill:white;"/>
    </g>
    <g transform="matrix(1,0,0,1,222.133,77.866)">
        <path d="M256.487,551.463C254.641,549.792 253.601,547.285 253.905,544.624C254.301,541.166 256.21,539.171 258.892,538.102C260.097,537.622 262.148,537.012 264.88,538.128C265.043,538.194 266.191,538.583 267.602,539.953C268.526,540.85 273.831,546.232 274.58,546.993C276.14,548.322 277.192,550.246 277.366,552.448C277.581,555.161 276.569,557.01 275.444,558.312C274.324,559.609 272.839,560.582 270.837,560.95C270.504,561.012 267.128,561.921 263.773,558.799C262.788,557.883 256.806,551.788 256.487,551.463Z" style="fill:white;"/>
    </g>
    <g transform="matrix(1,0,0,1,222.133,77.866)">
        <path d="M358.331,534.627C361.269,533.341 364.822,533.907 367.215,536.318C370.327,539.451 370.309,544.52 367.176,547.631C367.144,547.663 366.132,548.726 363.825,549.667C359.637,551.376 338.705,559.78 334.213,561.736L333.955,561.85C333.783,561.946 333.606,562.033 333.424,562.114C329.391,563.912 324.657,562.099 322.859,558.066C322.744,557.809 320.714,550.162 327.827,547.065C332.371,545.087 353.546,536.581 357.783,534.852L358.331,534.627Z" style="fill:white;"/>
    </g>
    <g transform="matrix(1,0,0,1,222.133,77.866)">
        <path d="M330.903,509.088C334.092,506.726 339.422,505.708 343.595,506.878C348.097,508.141 351.119,511.359 351.858,515.528C352.248,517.727 352.073,520.503 350.215,523.71C347.371,528.621 340.414,531.314 333.766,530.139C326.525,528.859 321.093,523.508 321.068,516.904C321.051,512.489 324.623,508.891 329.038,508.874C329.68,508.872 330.305,508.945 330.903,509.088ZM340.092,522.189C340.395,522.032 340.654,521.775 340.875,521.58C340.624,521.802 340.363,522.006 340.092,522.189Z" style="fill:white;"/>
    </g>
    <g transform="matrix(1,0,0,1,222.133,77.866)">
        <path d="M218.943,519.354C219.688,518.288 219.169,516.265 219.237,515.022C219.393,512.158 219.767,509.113 220.305,506.292C222.018,497.309 223.51,488.291 225.727,479.408C226.615,475.848 226.722,472.332 228.305,468.972C229.469,466.5 231.039,463.299 231.665,460.651C231.731,460.375 232.398,458.057 232.608,457.947C233.086,457.7 235.514,460.057 235.827,460.313C239.275,463.14 242.474,467.065 244.876,470.821C249.311,477.756 252.817,485.411 257.251,492.406C260.764,497.946 265.45,502.59 268.488,508.444C269.92,511.202 271.377,514.016 273.182,516.552C273.684,517.256 275.369,518.613 275.369,519.449" style="fill:none;stroke:white;stroke-width:16px;"/>
    </g>
    <g transform="matrix(1,0,0,1,92.9,-49.2403)">
        <path d="M84.88,194.181C71.915,192.459 57.705,208.677 71.138,214.988C77.2,217.836 85.898,215.986 89.618,209.969C90.939,207.832 91.721,201.411 90.861,198.893C90.801,198.716 90.653,198.187 90.653,198.373C90.653,203.719 94.805,217.733 101.316,217.733" style="fill:none;stroke:white;stroke-width:16px;"/>
    </g>
    <g transform="matrix(1,0,0,1,92.9,-49.2403)">
        <path d="M214.92,191.273C196.595,188.082 190.091,205.248 200.545,211.368C202.519,212.523 217.524,216.515 217.524,213.487" style="fill:none;stroke:white;stroke-width:16px;"/>
    </g>
    <g transform="matrix(1,0,0,1,92.9,-49.2403)">
        <path d="M258.592,194.185C258.17,194.477 257.789,194.839 257.326,195.06L256.189,195.06C252.533,195.06 233.654,202.554 240.969,209.245C245.866,213.724 259.729,215.419 264.885,210.902C268.161,208.031 269.699,204.55 269.699,200.288C269.699,199.943 268.511,194.848 267.732,196.406C264.213,203.444 280.821,213.54 285.745,213.54" style="fill:none;stroke:white;stroke-width:16px;"/>
    </g>
    <g transform="matrix(1,0,0,1,92.9,-49.2403)">
        <path d="M312.932,117.522C314.242,148.571 304.262,181.206 308.209,211.937C308.682,215.624 315.199,217.256 315.199,218.612" style="fill:none;stroke:white;stroke-width:16px;"/>
    </g>
    <g transform="matrix(1,0,0,1,92.9,-49.2403)">
        <path d="M341.078,191.273C344.83,197.12 340.172,216.238 343.098,219.389C343.255,219.557 343.242,218.947 343.254,218.718C343.412,215.627 344.198,212.683 344.857,209.658C346.315,202.968 349.249,194.191 357.386,193.146C367.9,191.796 365.014,214.104 366.805,219.753C367.228,221.086 367.489,217.039 367.738,215.663C368.148,213.393 368.641,211.093 369.444,208.934C372.201,201.523 376.044,198.512 382.385,194.336C390.303,189.122 392.946,216.956 392.946,219.234" style="fill:none;stroke:white;stroke-width:16px;"/>
    </g>
    <g transform="matrix(1,0,0,1,92.9,-49.2403)">
        <path d="M510.901,194.185C506.524,180.017 482.839,200.267 488.548,211.626C492.076,218.647 503.717,216.695 508.115,212.297C509.99,210.422 511.247,205.653 511.584,203.032C511.791,201.418 511.997,196.542 511.997,198.169C511.997,205.713 514.707,215.151 522.145,217.63" style="fill:none;stroke:white;stroke-width:16px;"/>
    </g>
    <g transform="matrix(1,0,0,1,92.9,-49.2403)">
        <path d="M543.896,189.333C544.481,192.78 544.817,196.714 544.817,200.238C544.817,202.525 545.279,204.747 545.279,207.02C545.279,228.611 548.474,183.514 564.794,190.557C570.084,192.84 573.825,201.126 574.578,206.448C574.967,209.201 575.923,217.462 575.923,214.681" style="fill:none;stroke:white;stroke-width:16px;"/>
    </g>
    <g transform="matrix(1,0,0,1,92.9,-49.2403)">
        <path d="M609.884,192.244C586.309,188.028 597.478,231.496 611.95,212.661C621.328,200.456 619.626,149.484 622.098,132.275C622.252,131.203 622.171,131.539 622.253,130.774C622.416,129.255 624.385,106.961 622.147,106.961" style="fill:none;stroke:white;stroke-width:16px;"/>
    </g>
    <g transform="matrix(1,0,0,1,92.9,-49.2403)">
        <path d="M616.677,199.037C618.061,202.901 617.488,212.081 620.286,215.094C621.013,215.877 623.959,217.94 623.959,218.923" style="fill:none;stroke:white;stroke-width:16px;"/>
    </g>
    <g transform="matrix(1,0,0,1,92.9,-49.2403)">
        <path d="M67.416,328.103C69.676,327.464 92.227,320.131 92.98,318.565C96.405,311.452 75.826,303.017 69.69,307.591C59.759,314.995 62.31,336.124 73.159,341.548C76.389,343.163 88.618,345.611 91.119,342.068" style="fill:none;stroke:white;stroke-width:16px;"/>
    </g>
    <g transform="matrix(1,0,0,1,92.9,-49.2403)">
        <path d="M146.024,308.694C126.676,299.501 108.348,324.242 119.845,333.834C134.097,345.725 159.826,320.086 151.732,311.992C151.309,311.569 151.164,315.522 151.164,320.741C151.164,326.816 151.225,332.655 153.544,338.288C154.207,339.897 161.268,340.271 161.361,338.91" style="fill:none;stroke:white;stroke-width:16px;"/>
    </g>
    <g transform="matrix(1,0,0,1,92.9,-49.2403)">
        <path d="M214.916,304.809C209.169,301.154 186.266,290.406 184.655,303.918C183.19,316.195 216.755,320.842 210.481,332.026C207.375,337.561 197.833,337.613 192.21,337.613C190.496,337.613 184.966,335.897 184.966,336.112" style="fill:none;stroke:white;stroke-width:16px;"/>
    </g>
    <g transform="matrix(1,0,0,1,92.9,-49.2403)">
        <path d="M238.21,305.783C239.703,316.949 232.502,339.201 255.412,333.421C261.753,331.821 268.611,323.809 268.611,317.117C268.611,314.639 269.024,312.23 269.024,309.714C269.024,308.438 269.024,304.609 269.024,305.885C269.024,323.709 269.129,358.331 261.985,373.746C251.706,395.928 230.048,386.806 230.048,362.306" style="fill:none;stroke:white;stroke-width:16px;"/>
    </g>
    <g transform="matrix(1,0,0,1,89.9,-43.2403)">
        <path d="M384.739,307.72C366.725,296.919 373.283,341.001 387.252,325.555C394.735,317.282 393.564,284.053 393.564,272.084C393.564,266.793 393.266,245.157 390.979,247.444" style="fill:none;stroke:white;stroke-width:16px;"/>
    </g>
    <g transform="matrix(1,0,0,1,89.9,-43.2403)">
        <path d="M393.481,310.635C394.713,314.689 393.69,328.349 400.967,328.349" style="fill:none;stroke:white;stroke-width:16px;"/>
    </g>
    <g transform="matrix(1,0,0,1,89.9,-43.2403)">
        <path d="M434.231,304.809C419.7,301.923 414.688,321.428 429.852,322.398C449.828,323.675 450.992,304.229 433.268,304.229" style="fill:none;stroke:white;stroke-width:16px;"/>
    </g>
    <g transform="matrix(1,0,0,1,89.9,-43.2403)">
        <path d="M480.811,303.838C464.103,302.185 454.298,324.48 474.367,325.605C493.501,326.677 497.573,300.327 477.111,304.176" style="fill:none;stroke:white;stroke-width:16px;"/>
    </g>
    <g transform="matrix(1,0,0,1,89.9,-43.2403)">
        <path d="M494.4,298.02C497.012,315.59 493.179,372.081 484.564,384.925C473.179,401.899 450.34,385.731 455.474,363.443" style="fill:none;stroke:white;stroke-width:16px;"/>
    </g>
    <g transform="matrix(1,0,0,1,89.9,-43.2403)">
        <path d="M597.265,249.499C600.73,271.282 594.631,295.196 596.268,317.477C596.698,323.328 599.081,330.345 604.808,332.905C605.178,333.071 606.048,333.106 606.048,333.527" style="fill:none;stroke:white;stroke-width:16px;"/>
    </g>
    <g transform="matrix(1,0,0,1,89.9,-43.2403)">
        <path d="M629.289,304.813C632.196,311.649 626.37,322.381 630.949,328.504C631.866,329.73 632.971,330.548 633.845,328.66" style="fill:none;stroke:white;stroke-width:16px;"/>
    </g>
    <g transform="matrix(1,0,0,1,89.9,-43.2403)">
        <path d="M631.233,279.582L632.204,279.582" style="fill:none;stroke:white;stroke-width:16px;"/>
    </g>
    <g transform="matrix(1,0,0,1,89.9,-43.2403)">
        <path d="M659.376,336.836C664.997,332.357 663.818,323.225 663.818,316.704C663.818,297.962 661.508,279.401 660.71,260.696C660.477,255.232 659.183,244.194 662.624,239.578C665.467,235.765 677.291,227.174 676.085,238.748" style="fill:none;stroke:white;stroke-width:16px;"/>
    </g>
    <g transform="matrix(1,0,0,1,89.9,-43.2403)">
        <path d="M646.76,302.872C652.58,304.812 673.129,299.001 680.691,299.001" style="fill:none;stroke:white;stroke-width:16px;"/>
    </g>
    <g transform="matrix(1,0,0,1,89.9,-43.2403)">
        <path d="M699.159,323.251C702.689,324.465 706.958,320.805 710.815,320.222C714.566,319.655 726.72,315.164 730.436,312.716C731.662,311.909 728.916,308.868 728.624,308.319C725.647,302.719 709.727,292.012 703.154,298.584C694.906,306.833 698.727,325.73 706.107,333.11C707.715,334.718 724.325,340.814 724.325,338.186" style="fill:none;stroke:white;stroke-width:16px;"/>
    </g>
    <g transform="matrix(1,0,0,1,147.112,323.941)">
        <path d="M33.661,927.329C37.849,935.606 35.144,951.55 34.419,960.849C34.069,965.331 33.185,969.597 33.21,974.137C33.215,975.08 33.226,976.965 33.226,976.965C33.226,976.965 33.736,968.716 33.849,964.586C33.978,959.897 40.839,922.444 52.824,931.998C60.572,938.175 62.629,949.95 62.681,959.417C62.698,962.599 62.716,965.781 62.733,968.964C62.742,970.584 62.979,975.438 62.971,973.818C62.9,960.959 60.182,935.501 77.197,931.599C97.529,926.936 89.978,964.608 93.325,974.238C93.798,975.598 93.415,971.357 93.407,969.917" style="fill:none;stroke:white;stroke-width:16px;"/>
    </g>
    <g transform="matrix(1,0,0,1,147.112,323.941)">
        <path d="M148.725,938.699C133.802,934.532 118.903,935.703 116.103,955.07C115.582,958.673 112.711,966.084 116.234,968.991C125.376,976.534 137.029,973.196 142.605,963.14C144.854,959.082 146.809,955.037 148.459,950.783C149.171,948.947 148.513,943.038 149.118,944.912C151.075,950.968 142.219,974.13 153.759,974.067" style="fill:none;stroke:white;stroke-width:16px;"/>
    </g>
    <g transform="matrix(1,0,0,1,147.112,323.941)">
        <path d="M175.721,938.552C179.149,946.79 175.636,957.154 176.972,965.885C177.579,969.857 186.207,976.693 186.173,970.475" style="fill:none;stroke:white;stroke-width:16px;"/>
    </g>
    <g transform="matrix(1,0,0,1,147.112,323.941)">
        <path d="M175.573,911.552C176.513,910.207 176.556,909.138 176.547,907.586" style="fill:none;stroke:white;stroke-width:16px;"/>
    </g>
    <g transform="matrix(0.986277,0,0,1.0733,149.879,255.668)">
        <path d="M201.682,931.409C203.626,940.35 204.429,950.042 204.99,959.169C205.175,962.169 205.504,965.181 205.52,968.182C205.528,969.729 205.554,974.369 205.545,972.822C205.469,958.944 205.065,936.235 223.642,936.133C228.487,936.107 232.225,937.772 234.928,941.989C238.991,948.331 237.585,965.214 237.625,972.589" style="fill:none;stroke:white;stroke-width:15.52px;"/>
    </g>
    <g transform="matrix(1.0406,0,0,0.880599,133.124,440.494)">
        <path d="M294.693,933.896C291.125,932.905 287.096,931.731 283.361,931.751C276.126,931.791 261.266,942.811 270.502,950.385C276.046,954.931 285.332,953.381 291.445,957.149C294.183,958.836 295.937,963.753 295.073,966.891C292.985,974.474 263.414,980.928 265.761,971.317" style="fill:none;stroke:white;stroke-width:16.6px;"/>
    </g>
    <g transform="matrix(1,0,0,1.2093,147.112,131.953)">
        <path d="M331.696,933.698C317.659,929.663 308.106,955.71 318.737,963.347C328.409,970.295 346.816,946.756 341.297,936.253" style="fill:none;stroke:white;stroke-width:14.42px;"/>
    </g>
    <g transform="matrix(1,0,0,1.05063,147.112,280.985)">
        <path d="M344.681,931.623C341.637,936.394 343.673,948.711 343.705,954.57C343.809,973.544 342.367,992.598 342.47,1011.44C342.507,1018.28 340.271,1029.54 343.138,1035.81C343.784,1037.23 351.335,1050.32 352.146,1044.35" style="fill:none;stroke:white;stroke-width:15.6px;"/>
    </g>
    <g transform="matrix(1,0,0,1.21585,150.112,124.779)">
        <path d="M363.707,935.523C366.006,943.169 360.943,955.39 364.443,962.296C366.346,966.051 372.192,966.254 375.668,966.235C386.246,966.177 391.713,958.914 394.992,949.648C395.946,946.952 396.403,944.151 396.387,941.266C396.379,939.719 396.353,935.078 396.362,936.625C396.385,940.91 396.704,945.319 396.327,949.586C396.044,952.797 396.148,956.019 396.165,959.244C396.18,961.833 395.718,964.257 397.964,965.902C398.766,966.49 401.486,966.459 401.489,967.004" style="fill:none;stroke:white;stroke-width:14.37px;"/>
    </g>
    <g transform="matrix(0.893225,0,0,0.897322,190.552,426.284)">
        <path d="M430.826,957.155C441.367,961.751 487.75,939.993 450.798,931.901C447.164,931.105 443.543,930.924 439.751,931.161C425.925,932.024 422.757,955.349 427.879,964.722C433.031,974.15 448.113,974.293 457.202,972.175" style="fill:none;stroke:white;stroke-width:17.87px;"/>
    </g>
    <g transform="matrix(0.755189,0,0,0.763729,259.589,552.92)">
        <path d="M488.825,956.838C496.666,958.203 523.388,943.463 531.703,939.404C533.635,938.46 524.257,931.694 523.659,931.287C517.948,927.404 506.901,925.747 500.385,928.376C486.322,934.049 481.78,953.792 488.977,966.272C497.177,980.489 518.883,984.282 531.366,973.763" style="fill:none;stroke:white;stroke-width:21.07px;"/>
    </g>
    <g transform="matrix(0.812624,0,0,0.850408,241.153,468.354)">
        <path d="M544.58,930.509C548.512,931.935 553.948,930.411 558.03,930.074C563.905,929.589 569.943,929.927 575.842,929.895C577.12,929.888 585.065,928.819 585.905,929.65C586.462,930.201 584.262,931.69 584.036,931.98C581.854,934.781 579.562,937.504 577.372,940.308C569.89,949.887 562.158,959.511 554.369,968.831C552.284,971.326 549.549,974.905 548.279,977.892C548.249,977.963 548.144,978.139 548.199,978.22C549.012,979.417 555.015,978.216 556.248,978.15C564.639,977.705 573.044,977.129 581.446,977.083C582.706,977.077 590.421,977.223 590.411,975.508" style="fill:none;stroke:white;stroke-width:19.24px;"/>
    </g>
    <g transform="matrix(0.809144,-0.149425,0.166368,0.900892,83.8227,514.76)">
        <path d="M616.324,957.733C621.772,959.148 628.645,957.403 634.119,956.636C639.821,955.838 645.342,953.748 651.01,952.726C653.31,952.312 659.234,951.144 660.949,949.534C661.74,948.791 659.88,945.75 659.589,945.258C657.018,940.897 654.333,938.035 649.932,935.354C639.896,929.24 627.596,930.401 618.661,938.28C616.253,940.403 615.317,945.067 614.759,948.069C612.096,962.397 617.168,970.595 630.27,976.025C633.739,977.463 638.064,977.702 641.79,977.682C642.728,977.677 645.499,977.63 645.493,976.405" style="fill:none;stroke:white;stroke-width:18.38px;"/>
    </g>
    <g transform="matrix(1,0,0,1,-41.0453,307.41)">
        <path d="M492.395,847.846C494.221,850.064 505.801,867.729 507.703,867.719" style="fill:none;stroke:white;stroke-width:16px;"/>
    </g>
    <g transform="matrix(1,0,0,1,42.044,284.191)">
        <path d="M576.887,806.788L574.152,872.109" style="fill:none;stroke:white;stroke-width:16px;"/>
    </g>
    <g transform="matrix(1,0,0,1,113.23,321.506)">
        <path d="M671.417,824.803L636.37,871.768" style="fill:none;stroke:white;stroke-width:16px;"/>
    </g>
    <g transform="matrix(1,0,0,1,48.532,429.148)">
        <path d="M574.338,985.95L578.193,1045.94" style="fill:none;stroke:white;stroke-width:16px;"/>
    </g>
    <g transform="matrix(1,0,0,1,-43.5636,422.495)">
        <path d="M516.117,989.799L497.747,1020.78" style="fill:none;stroke:white;stroke-width:16px;"/>
    </g>
    <g transform="matrix(1,0,0,1,148.549,394.03)">
        <path d="M638.723,978.538L660.902,1000.48" style="fill:none;stroke:white;stroke-width:16px;"/>
    </g>
</svg>
