<?xml version="1.0" encoding="UTF-8" standalone="no"?>
<!DOCTYPE svg PUBLIC "-//W3C//DTD SVG 1.1//EN" "http://www.w3.org/Graphics/SVG/1.1/DTD/svg11.dtd">
<svg width="100%" height="100%" viewBox="0 0 400 350" version="1.1" xmlns="http://www.w3.org/2000/svg" xmlns:xlink="http://www.w3.org/1999/xlink" xml:space="preserve" xmlns:serif="http://www.serif.com/" style="fill-rule:evenodd;clip-rule:evenodd;stroke-linecap:round;stroke-linejoin:round;stroke-miterlimit:1.5;">
    <g>
        <g transform="matrix(0.903049,0,0,0.903049,-882.673,-1430.8)">
            <circle cx="1249.6" cy="1790.4" r="2.956" style="stroke:black;stroke-width:4.15px;"/>
        </g>
        <g transform="matrix(0.903049,0,0,0.903049,-959.781,-1424.94)">
            <circle cx="1249.6" cy="1790.4" r="2.956" style="stroke:black;stroke-width:4.15px;"/>
        </g>
        <g transform="matrix(0.903049,0,0,0.903049,-922.571,-1430.99)">
            <path d="M1027.09,1893.58C1028.59,1890.55 1030.26,1890.16 1031.75,1891.54C1035.43,1894.97 1032.68,1904.27 1034.13,1909.05C1034.35,1909.77 1033.79,1913.07 1034.36,1913.6C1034.36,1913.6 1034.97,1910.75 1035.01,1910.39C1035.24,1908.25 1035.81,1906.17 1035.91,1903.98C1036.16,1898.75 1040.78,1889.45 1046.54,1887.98C1055.67,1885.65 1056.1,1911.43 1056.02,1912.57C1056.76,1903.57 1057.26,1899.29 1057.98,1897.39C1060.38,1890.98 1063.48,1886.92 1069.78,1886.02C1070.97,1885.85 1073.56,1885 1074.82,1885.63C1075.99,1886.21 1075.8,1888.79 1076.19,1889.84C1077.98,1894.73 1074.49,1909.88 1084.3,1907.86C1086.31,1907.45 1088.36,1902.56 1088.98,1900.91C1090.99,1895.55 1093.61,1890.61 1098.06,1886.92C1100.94,1884.53 1105.1,1884.01 1108.73,1884.23C1109.38,1884.27 1114.41,1885.95 1114.03,1886.3C1113.8,1886.52 1110.63,1884.87 1110.13,1884.75C1107.61,1884.15 1102.63,1883.78 1100.41,1885.27C1096.21,1888.07 1094.67,1894.61 1094.67,1899.2C1094.67,1901.03 1094.61,1903.84 1096.61,1904.84C1105.37,1909.22 1111.92,1897.75 1115.35,1891.86C1116.85,1889.28 1117.88,1886.5 1119.31,1883.9C1119.37,1883.79 1120.51,1881.57 1120.24,1881.36C1118.38,1879.98 1117.77,1886.04 1117.73,1886.64C1117.61,1888.46 1117.7,1890.28 1117.91,1892.09C1118.38,1896.16 1115.91,1910.18 1124.17,1908.12C1132.02,1906.15 1135.22,1897.25 1136.99,1890.46C1137.27,1889.4 1137.25,1884.08 1138.08,1883.25C1138.83,1882.5 1138.08,1885.39 1138.08,1886.46C1138.08,1888.41 1138.04,1890.37 1138.1,1892.32C1138.3,1898.68 1140.81,1903.36 1147.41,1903.05C1155.18,1902.69 1158.75,1893.74 1162.01,1887.72C1163.2,1885.54 1165.41,1884.12 1166.56,1882.04C1166.7,1881.78 1167,1880.17 1167.26,1880.12C1169.17,1879.79 1168.94,1883.92 1168.99,1884.67C1169.26,1888.83 1169.19,1893.03 1169.61,1897.16C1169.63,1897.34 1169.7,1900.84 1170.13,1900.99C1171.32,1901.39 1170.72,1898.54 1171.09,1897.34C1171.88,1894.73 1173.04,1892.59 1174.34,1890.2C1177.69,1884.07 1179.53,1880.83 1186.34,1879.04C1188.45,1878.48 1190.9,1876.73 1192.88,1878.42C1195.44,1880.61 1194.92,1891.21 1195.2,1894.11C1195.28,1894.93 1194.73,1897.83 1195.26,1898.4C1197.28,1900.58 1206.82,1898.18 1208.83,1896.43C1216.42,1889.83 1220.09,1880.3 1224.75,1871.59C1226.23,1868.84 1229.33,1866.69 1230.36,1863.66C1230.73,1862.58 1231.62,1865.55 1232.25,1866.5C1233.39,1868.23 1234.8,1870 1235.09,1872.11C1236.29,1880.74 1236.15,1890.65 1234.58,1899.2C1233.72,1903.83 1229.89,1906.77 1225.76,1902.64C1222.47,1899.35 1221.46,1896.15 1219.71,1891.99C1219.57,1891.66 1218.03,1888.24 1218.24,1888.19C1220.22,1887.68 1222.7,1888.4 1224.75,1888.24C1229.56,1887.88 1234.67,1886.94 1239.28,1885.5C1244.89,1883.74 1249.11,1878.44 1254.85,1876.45C1259.72,1874.76 1264.79,1873.33 1269.97,1872.96C1270.57,1872.92 1273.86,1872.5 1274.28,1872.96C1274.94,1873.67 1277.65,1874.49 1276.69,1874.62C1275.15,1874.82 1272.24,1872.15 1270.43,1871.75C1266.79,1870.93 1260.73,1872.52 1257.58,1874.28C1249.55,1878.8 1247.42,1889.12 1254.38,1895.68C1262.15,1903.01 1273.73,1898 1278.29,1890.28C1280.52,1886.51 1280.81,1882.26 1281.29,1877.98C1281.33,1877.64 1281.76,1872.73 1279.79,1874.13C1276.48,1876.47 1276.71,1881.59 1276.15,1884.9C1275.59,1888.21 1274.19,1898.59 1273.63,1901.37C1271.43,1912.37 1271.7,1924.59 1271.7,1935.83C1271.7,1941.07 1270.97,1946.88 1277.83,1946.2C1280.71,1945.91 1283.31,1942.11 1284.34,1939.76C1287.24,1933.18 1289.59,1926.99 1289.59,1919.7C1289.59,1912.62 1283.77,1903.64 1278.94,1898.81C1278.69,1898.57 1280.36,1898 1280.57,1897.93C1281.52,1897.62 1282.64,1896.8 1283.49,1896.26C1286.31,1894.43 1289.06,1892.38 1291.42,1889.9C1295.52,1885.6 1300.32,1880.46 1303.7,1875.68C1305.3,1873.41 1307.2,1869.14 1309.52,1867.61C1309.58,1867.57 1309.37,1869.55 1309.29,1869.76C1308.79,1870.95 1308.62,1872.18 1308.25,1873.4C1307.2,1876.87 1302.63,1885.01 1307.19,1887.83C1315.08,1892.7 1325.1,1883.1 1329.92,1877.95C1331.38,1876.38 1331.73,1873.14 1332.16,1871.1C1332.4,1869.99 1333.01,1866.72 1333.2,1867.84C1333.45,1869.32 1331.94,1871.49 1331.49,1872.88C1329.11,1880.27 1328.27,1885.54 1336.79,1887.05C1338.41,1887.34 1340.29,1887.18 1341.93,1887.13C1350.53,1886.84 1355.06,1879.02 1359.52,1872.65C1360.52,1871.22 1364.33,1864.33 1360.78,1863.97C1351.61,1863.03 1347.68,1877.11 1354.86,1882.27C1361.71,1887.19 1372.92,1884.25 1378.77,1879.68C1381.79,1877.33 1385.26,1870.24 1382.34,1866.4C1380.51,1863.98 1376.41,1867.12 1375.31,1868.52C1371.22,1873.7 1371.04,1884.47 1379.03,1886.2C1388.51,1888.25 1392.14,1885.67 1398.19,1877.95C1399.46,1876.32 1405.82,1867.98 1409.15,1869.52C1410.39,1870.1 1418.56,1873.35 1418.28,1874.67C1417.96,1876.15 1416.04,1877.01 1415.15,1878.03C1413.2,1880.24 1411.66,1882.65 1409.74,1884.88C1409.46,1885.21 1407.09,1888.12 1407.93,1888.6C1410.77,1890.23 1414.6,1883.25 1416.57,1883.72C1417.72,1883.99 1419.23,1885.67 1420.26,1886.33C1432.84,1894.29 1426.28,1911.2 1422.12,1922.31C1421,1925.33 1419.57,1928.4 1418.09,1931.26C1413.76,1939.65 1401.15,1958.02 1392.73,1942.99C1391.88,1941.47 1390.66,1940.39 1390.33,1938.6C1389.1,1931.88 1398.76,1921.01 1402.07,1916.33C1409.28,1906.14 1418.86,1896.63 1432,1885.2C1435.55,1882.1 1453.53,1876.16 1453.02,1870.82C1452.61,1866.47 1447.3,1864.81 1443.38,1866.99C1438.28,1869.83 1434.79,1876.98 1436.32,1881.96C1438.28,1888.34 1445.2,1891.73 1451.47,1891.73C1453.85,1891.73 1455.84,1891.36 1458.03,1890.39C1458.22,1890.3 1460.24,1889.2 1460.15,1889.12C1459.89,1888.86 1458.62,1889 1458.14,1888.65" style="fill:none;stroke:black;stroke-width:5.54px;"/>
        </g>
        <g transform="matrix(0.903049,0,0,0.903049,-1021.91,-1365.97)">
            <circle cx="1249.6" cy="1790.4" r="2.956" style="stroke:black;stroke-width:4.15px;"/>
        </g>
        <g transform="matrix(0.372614,0,0,0.155307,-481.647,-51.612)">
            <path d="M1872.84,1815.26L1873.84,1834.29" style="fill:none;stroke:black;stroke-width:13.14px;"/>
        </g>
        <g transform="matrix(0.903049,0,0,0.903049,-1475.6,-1423.33)">
            <path d="M1862.15,1828.98C1862.88,1842.37 1884.74,1842.41 1883.42,1828.71" style="fill:none;stroke:black;stroke-width:4.15px;"/>
        </g>
        <g transform="matrix(0.903049,0,0,0.903049,-1197.33,-1424.24)">
            <path d="M1559.61,1798.01C1572.67,1795.78 1580.54,1806.81 1564.34,1810.43C1548.13,1814.04 1546.56,1800.25 1559.61,1798.01Z" style="stroke:black;stroke-width:4.15px;"/>
        </g>
        <g transform="matrix(0.903049,0,0,0.903049,-1027.25,-1191.25)">
            <path d="M1375.52,1552.27C1374.79,1567.82 1381.07,1571.08 1389.01,1570.88C1396.94,1570.67 1397.76,1563.07 1397.96,1563.13" style="fill:none;stroke:black;stroke-width:4.15px;"/>
        </g>
        <g transform="matrix(-0.903049,0,0,0.903049,1456.51,-1191.25)">
            <path d="M1375.52,1552.27C1374.79,1567.82 1381.07,1571.08 1389.01,1570.88C1396.94,1570.67 1397.76,1563.07 1397.96,1563.13" style="fill:none;stroke:black;stroke-width:4.15px;"/>
        </g>
        <g transform="matrix(0.903049,0,0,0.903049,-880.075,-1423.33)">
            <path d="M1102.44,1836.78L1102.45,1682.09C1102.45,1682.09 1118.98,1681.42 1130.74,1689.64C1142.49,1697.85 1179.78,1753.77 1179.78,1753.77L1230.72,1750C1230.72,1750 1249.7,1682.78 1264.67,1672.66C1279.64,1662.53 1292.97,1668.88 1292.97,1668.88C1292.97,1668.88 1297.44,1830.17 1297.72,1830.15C1327.69,1827.87 1345.26,1777.89 1347.66,1734.9C1350.07,1691.91 1288.87,1611.38 1223.38,1606.67C1157.88,1601.96 1121.19,1623.63 1103.67,1637.2C1086.14,1650.77 1055.15,1703.19 1056.66,1753.04C1058.17,1802.88 1070.68,1822.94 1079.92,1828.64C1089.16,1834.34 1102.44,1836.78 1102.44,1836.78Z" style="stroke:black;stroke-width:4.15px;"/>
        </g>
    </g>
</svg>
