<?xml version="1.0" encoding="UTF-8" standalone="no"?>
<!DOCTYPE svg PUBLIC "-//W3C//DTD SVG 1.1//EN" "http://www.w3.org/Graphics/SVG/1.1/DTD/svg11.dtd">
<svg width="100%" height="100%" viewBox="0 0 400 350" version="1.1" xmlns="http://www.w3.org/2000/svg" xmlns:xlink="http://www.w3.org/1999/xlink" xml:space="preserve" xmlns:serif="http://www.serif.com/" style="fill-rule:evenodd;clip-rule:evenodd;stroke-linecap:round;stroke-linejoin:round;stroke-miterlimit:1.5;">
    <g>
        <g transform="matrix(1.29062,0,0,1.29062,-1349.59,-2055.78)">
            <path d="M1102.44,1836.78C1102.44,1836.78 1162.23,1851.94 1212.28,1850.24C1259.73,1848.63 1285.1,1840.71 1303.41,1831.95C1330.52,1818.97 1345.26,1777.89 1347.66,1734.9C1350.07,1691.91 1288.87,1611.38 1223.38,1606.67C1157.88,1601.96 1121.19,1623.63 1103.67,1637.2C1086.14,1650.77 1055.15,1703.19 1056.66,1753.04C1058.17,1802.88 1070.68,1822.94 1079.92,1828.64C1089.16,1834.34 1102.44,1836.78 1102.44,1836.78Z" style="fill:white;stroke:white;stroke-width:4.15px;"/>
        </g>
        <g transform="matrix(1.29062,0,0,1.29062,-1353.3,-2066.45)">
            <circle cx="1249.6" cy="1790.4" r="2.956" style="stroke:black;stroke-width:4.15px;"/>
        </g>
        <g transform="matrix(1.29062,0,0,1.29062,-1463.5,-2058.08)">
            <circle cx="1249.6" cy="1790.4" r="2.956" style="stroke:black;stroke-width:4.15px;"/>
        </g>
        <g transform="matrix(0.532533,0,0,0.221962,-780.16,-95.3413)">
            <path d="M1872.84,1815.26L1873.84,1834.29" style="fill:none;stroke:black;stroke-width:13.14px;"/>
        </g>
        <g transform="matrix(1.29062,0,0,1.29062,-2200.7,-2055.78)">
            <path d="M1862.15,1828.98C1862.88,1842.37 1884.74,1842.41 1883.42,1828.71" style="fill:none;stroke:black;stroke-width:4.15px;"/>
        </g>
        <g transform="matrix(1.29062,0,0,1.29062,-1803,-2057.08)">
            <path d="M1559.61,1798.01C1572.67,1795.78 1580.54,1806.81 1564.34,1810.43C1548.13,1814.04 1546.56,1800.25 1559.61,1798.01Z" style="stroke:black;stroke-width:4.15px;"/>
        </g>
        <g transform="matrix(1.29062,0,0,1.29062,-1559.93,-1724.09)">
            <path d="M1375.52,1552.27C1374.79,1567.82 1381.07,1571.08 1389.01,1570.88C1396.94,1570.67 1397.76,1563.07 1397.96,1563.13" style="fill:none;stroke:black;stroke-width:4.15px;"/>
        </g>
        <g transform="matrix(-1.29062,0,0,1.29062,1989.82,-1724.09)">
            <path d="M1375.52,1552.27C1374.79,1567.82 1381.07,1571.08 1389.01,1570.88C1396.94,1570.67 1397.76,1563.07 1397.96,1563.13" style="fill:none;stroke:black;stroke-width:4.15px;"/>
        </g>
        <g transform="matrix(1.29062,0,0,1.29062,-1349.59,-2055.78)">
            <path d="M1102.44,1836.78L1102.45,1682.09C1102.45,1682.09 1118.98,1681.42 1130.74,1689.64C1142.49,1697.85 1179.78,1753.77 1179.78,1753.77L1230.72,1750C1230.72,1750 1249.7,1682.78 1264.67,1672.66C1279.64,1662.53 1292.97,1668.88 1292.97,1668.88C1292.97,1668.88 1297.44,1834.6 1297.72,1834.58C1327.69,1832.3 1345.26,1777.89 1347.66,1734.9C1350.07,1691.91 1288.87,1611.38 1223.38,1606.67C1157.88,1601.96 1121.19,1623.63 1103.67,1637.2C1086.14,1650.77 1055.15,1703.19 1056.66,1753.04C1058.17,1802.88 1070.68,1822.94 1079.92,1828.64C1089.16,1834.34 1102.44,1836.78 1102.44,1836.78Z" style="stroke:black;stroke-width:4.15px;"/>
        </g>
    </g>
</svg>
