<?xml version="1.0" encoding="UTF-8" standalone="no"?>
<!DOCTYPE svg PUBLIC "-//W3C//DTD SVG 1.1//EN" "http://www.w3.org/Graphics/SVG/1.1/DTD/svg11.dtd">
<svg width="100%" height="100%" viewBox="0 0 863 1313" version="1.1" xmlns="http://www.w3.org/2000/svg" xmlns:xlink="http://www.w3.org/1999/xlink" xml:space="preserve" xmlns:serif="http://www.serif.com/" style="fill-rule:evenodd;clip-rule:evenodd;stroke-linejoin:round;stroke-miterlimit:2;">
    <g transform="matrix(1,0,0,1,-1982,-541)">
        <path d="M2477.74,1145.48L2534.18,1169.87L2579.34,1171.4L2584.89,1177.43L2584.79,1182.54L2591.38,1184.77L2592.67,1193.7L2589.38,1199.89L2583.66,1200.06L2577.13,1207.74L2571.58,1209.23L2494.15,1183.64L2477.74,1145.48Z" style="fill:rgb(63,239,255);"/>
        <path d="M2268.88,1758.59L2274.16,1839.88L2309.22,1843.71L2343.39,1818.86L2334.87,1758.8L2293.78,1732.35L2268.88,1758.59Z" style="fill:rgb(107,55,42);"/>
        <path d="M2154.77,1755.46L2180.82,1745.7L2200.55,1721.39L2219.22,1675.97L2241.14,1631.69L2230.73,1604.45L2184.06,1618.69L2168.67,1647.63L2140.93,1697.08L2137.54,1730.6L2141.57,1747.29L2154.77,1755.46Z" style="fill:rgb(146,87,73);"/>
        <path d="M2008.05,1229.14L2000.52,1247.55L2012.78,1282.3L2021.8,1288.48L2049.12,1296.79L2059.69,1293.47L2056.65,1285.48L2052.51,1262.93L2058.2,1233.24L2039.61,1207.19L2008.05,1229.14ZM2037.3,1250.2L2041.3,1253.01L2040.82,1257.76L2036.97,1257.97L2037.3,1250.2Z" style="fill:rgb(255,185,152);"/>
        <path d="M2487.87,1120.31L2518.74,1143.23L2536.46,1165.73L2549.22,1176.34L2541.18,1179.99L2523.75,1175.29L2512.24,1162.43L2497.16,1159.84L2494.14,1155.02L2486.75,1154.92L2486.85,1161.18L2500.88,1186.83L2507.45,1185.58L2531.52,1192.66L2521.32,1200.67L2510.95,1197.29L2501.86,1198.61L2493.84,1189.38L2482.13,1188.3L2469.02,1177.07L2459.61,1163.78L2450.86,1118.78L2487.87,1120.31Z" style="fill:rgb(255,190,176);"/>
        <path d="M2112.15,1147.87L2106.98,1230.28L2150.02,1476.33L2150.29,1522.33L2171.46,1578.26L2173.67,1605.57L2184.98,1628.67L2201.26,1644.12L2241.39,1629.29L2246.7,1545.36L2236.7,1492.61L2245.11,1274.41L2258.15,1502.26L2263.8,1530.4L2269.11,1760.53L2286.22,1757.83L2292.9,1742.18L2325.45,1757.01L2338.76,1721.63L2347.39,1565.15L2338.49,1500.33L2340.42,1437.3L2378.41,1256.9L2378.9,1149.11L2254.35,1153.94C2239.52,1152.83 2176.66,1149.92 2176.66,1149.92C2176.66,1149.92 2121.15,1147.8 2112.15,1147.87Z" style="fill:rgb(115,83,153);"/>
        <path id="torso" d="M2118.06,1147.02L2248.93,1161.31L2377.22,1149L2373.17,1083.22L2410.02,1136.17L2437.06,1132.9L2458.07,1163.47L2467.54,1132.82L2493.37,1119.99L2414.16,1021.4L2402.19,949.251L2395.81,819.07L2376.01,782.821L2319.1,750.443L2306.33,748.028L2305.14,759.912L2264.51,787.468L2219.23,769.819L2194,744.68L2110.65,777.48L2091.28,811.58L2061.66,885.453L2054.78,960.184L2010.09,1108.37L1999.07,1136.34L2004.84,1160.2L2005.87,1231.14L2060.11,1233.12L2050.9,1192.4L2062.35,1161.57L2076.21,1122.48L2108.5,956.483L2127.01,1039.31L2114.1,1066.52L2119.95,1109.83L2118.06,1147.02Z" style="fill:rgb(77,234,138);"/>
        <path d="M2593.38,1242.54L2584.8,1224.75L2608.72,1218.32L2589.12,1179.21L2590.96,1160.29L2639.69,1154.52L2659.39,1133.96L2659.44,1117.86L2646.39,1104.67L2687.1,1116.52L2700.37,1141.39L2728.41,1152.61L2750.6,1181.17L2783.41,1204.68L2823.77,1257.52L2795.88,1263.08L2762.89,1233.96L2750.67,1302.55L2738.67,1436.79L2701.88,1497.97L2669.06,1559.96L2657.16,1620.25L2673.99,1661.14L2672.06,1698.91L2659.87,1712.42L2615.99,1689.25L2611.47,1631.28L2593.9,1580.87L2552.38,1508.15L2549.22,1490.1L2536.95,1489.43L2533.01,1543.83L2543.85,1593.36L2570.19,1616.51L2572.63,1629.88L2563.59,1639.1L2537.25,1630.51L2502.23,1589.05L2499.02,1548.96L2466.62,1486.55L2452.82,1469.44L2440.62,1512.91L2444.43,1557.78L2425.67,1558.87L2407.07,1546.01L2413.9,1480.12L2386.85,1511.5L2359.44,1502.42L2351.46,1471.16L2379.67,1439.06L2396.89,1394.45L2404.58,1380.1L2412.94,1333.72L2457.33,1273.83L2497.45,1252.26L2546.19,1243.54L2593.38,1242.54ZM2611.38,1511.11L2630.26,1528.43L2655.03,1519.55L2642.45,1545.82L2632.04,1568.22L2614.74,1531.94L2611.38,1511.11Z" style="fill:rgb(244,169,102);"/>
        <path d="M2431.02,1289.31L2494.43,1379.73L2532.33,1487.85L2546.53,1474.4L2562.46,1417.41L2547.92,1355.17L2567.19,1295.29L2589.43,1268.28L2608.33,1246.3L2635.19,1281.57L2649.31,1294.27L2687.4,1267.67L2697.32,1257.57L2683.65,1239.91L2685.26,1214.56L2709.38,1203.4L2720.46,1174.06L2703.71,1157.31L2674.11,1153.82L2668.39,1141.42L2665.47,1133.53L2678.35,1121.55L2665.28,1111.74L2649.12,1103.93L2661.15,1127.18L2659.19,1140.14L2644.88,1153.29L2594.43,1160.54L2588.34,1167.45L2593.08,1182.25L2600.7,1199.76L2612.8,1215.57L2625.42,1222.15L2631.13,1233.6L2609.19,1236.8L2520.5,1246.6L2458.97,1273.61L2431.02,1289.31ZM2740.97,1209.56L2746.76,1189.2L2772.57,1197.35L2793.04,1223.12L2811.37,1241.72L2827,1256.93L2798.3,1259.6L2773.2,1239.84L2755.36,1230.63L2752.88,1260.65L2723.28,1273.87L2719.26,1234.88L2740.97,1209.56Z" style="fill:rgb(14,14,14);"/>
        <path d="M2213.16,593.094L2185.23,609.545L2164.57,643.874L2157.41,680.709L2124.51,745.348L2091.57,786.999L2081.01,827.472L2107.6,785.063L2140.39,768.428L2145.83,796.892L2147.01,854.241L2169.15,853.787L2184.28,857.083L2224.81,785.367L2223.08,761.018L2223.99,706.21L2204,645.471L2205.57,624.419L2212.37,617.1L2220.21,620.305L2221.6,653.366L2232.22,676.718L2258.86,704.219L2299.67,676.868L2372.48,606.223L2353.51,577.203L2321.66,552.339L2281.4,548.015L2254.87,558.056L2230.64,581.166L2213.16,593.094Z" style="fill:rgb(94,50,23);"/>
        <path d="M2263.05,791.23L2304.98,759.461L2306.17,746.474L2326.87,744.838L2347.62,710.985L2368.4,705.778L2368.45,674.129L2380.54,639.833L2379.92,618.25L2370.08,601.651L2349.19,613.67L2316.36,646.039L2298.09,674.572L2276.29,659.243L2272.93,641.995L2258.05,641.776L2250.1,654.423L2257.53,675.869L2243.31,680.484L2232.01,676.072L2226.06,713.943L2223.26,726.6L2222.7,766.799L2223.46,770.799L2263.05,791.23Z" style="fill:rgb(239,173,133);"/>
    </g>
</svg>
